# xmcd
#
# Track frame offsets:
#	150
#	16861
#	31601
#	46532
#	57665
#	73730
#	87183
#	100482
#	109632
#	122448
#
# Disc length: 1894 seconds
#
# Revision: 1
# Processed by: cddbd v1.5.2PL0 Copyright (c) Steve Scherf et al.
# Submitted via: audiograbber 1.83.01
#
DISCID=7407640a
DTITLE=Albert Richardson - For You and Me
DYEAR=2014
DGENRE=Gospel
TTITLE0=For You and Me
TTITLE1=I'm So Glad
TTITLE2=Holy Rain
TTITLE3=Whiter than Snow
TTITLE4=We Believe
TTITLE5=Heaven My Home
TTITLE6=King of Upside Down
TTITLE7=Move Me
TTITLE8=God Loves You
TTITLE9=Rainbows
EXTD=
EXTT0=Writer:  Albert Richardson, ASCAP
EXTT1=Writer:  Albert Richardson, ASCAP
EXTT2=Writers:  Hal and Rachel Newman/Copyright, Windy Holler Music, ASCAP
EXTT3=Writers:  Hal and Rachel Newman/From "This Man, A Musical Fable", Copyrig
EXTT3=ht 2001, Windy Holler Music, ASCAP
EXTT4=Writers:  Hal and Rachel Newman/Copyright Windy Holler Music, ASCAP
EXTT5=Writer:  Albert Richardson, ASCAP
EXTT6=Writers:  Hal and Rachel Newman/From "This Man, A Musical Fable", Copyrig
EXTT6=ht, 2001, Windy Holler Music, ASCAP
EXTT7=Writers:  Hal and Rachel Newman/From "This Man, A Musical Fable", Copyrig
EXTT7=ht, 2001, Windy Holler Music, ASCAP
EXTT8=Writer:  Larry Martin, Copyright, Larry Martin Music, BMI
EXTT9=Writer:  Larry Martin, Copyright, Larry Martin Music, BMI
PLAYORDER=
